<svg width="404" height="404" viewBox="0 0 404 404" fill="none" xmlns="http://www.w3.org/2000/svg">
<rect width="404" height="404" rx="120" fill="#0B1418"/>
<path d="M292.519 137.926L269.969 153.715C265.989 156.489 263.028 160.49 261.537 165.107C260.047 169.723 260.11 174.701 261.716 179.278L293.574 270.254C293.767 270.823 293.77 271.438 293.583 272.009C293.396 272.58 293.029 273.074 292.538 273.419C292.046 273.763 291.455 273.939 290.855 273.919C290.255 273.899 289.678 273.686 289.209 273.31L113.976 129.876C113.508 129.5 112.93 129.286 112.33 129.267C111.73 129.247 111.14 129.423 110.648 129.767C110.156 130.111 109.789 130.606 109.603 131.177C109.416 131.747 109.419 132.363 109.612 132.932L141.47 223.908C143.07 228.467 143.138 233.424 141.665 238.026C140.192 242.628 137.258 246.624 133.308 249.407L110.667 265.26" stroke="#4DE9BA" stroke-width="30" stroke-linecap="round" stroke-linejoin="round"/>
</svg>
