<svg width="310" height="310" viewBox="0 0 310 310" fill="none" xmlns="http://www.w3.org/2000/svg">
<path d="M245.519 90.9259L222.969 106.715C218.989 109.489 216.028 113.49 214.537 118.107C213.047 122.723 213.11 127.701 214.716 132.278L246.574 223.254C246.767 223.823 246.77 224.438 246.583 225.009C246.396 225.58 246.029 226.074 245.538 226.419C245.046 226.763 244.455 226.939 243.855 226.919C243.255 226.899 242.678 226.686 242.209 226.31L66.9763 82.8757C66.508 82.5 65.9304 82.2863 65.3303 82.2667C64.7302 82.2471 64.14 82.4227 63.6481 82.7671C63.1563 83.1115 62.7894 83.6061 62.6026 84.1767C62.4157 84.7473 62.419 85.3632 62.6119 85.9318L94.4699 176.908C96.0698 181.467 96.1385 186.424 94.6653 191.026C93.1922 195.628 90.2578 199.624 86.3075 202.407L63.667 218.26" stroke="#4DE9BA" stroke-width="30" stroke-linecap="round" stroke-linejoin="round"/>
</svg>
